<?xml version="1.0" encoding="utf-8"?>
<!-- Generator: Adobe Illustrator 23.0.2, SVG Export Plug-In . SVG Version: 6.00 Build 0)  -->
<svg version="1.1" id="Capa_1" xmlns="http://www.w3.org/2000/svg" xmlns:xlink="http://www.w3.org/1999/xlink" x="0px" y="0px"
	 viewBox="0 0 300 250" style="enable-background:new 0 0 300 250;" xml:space="preserve">
<style type="text/css">
	.st0{fill:#0071BC;stroke:#000000;stroke-width:0.15;stroke-miterlimit:10;}
	.st1{fill:#FFFFFF;stroke:#000000;stroke-width:0.25;stroke-miterlimit:10;}
	.st2{fill:#2E76FF;}
	.st3{fill:#FFFFFF;}
	.st4{fill:none;stroke:#327496;stroke-width:1.6519;stroke-miterlimit:10;}
	.st5{fill:none;stroke:#327496;stroke-width:1.2411;stroke-miterlimit:10;}
	.st6{stroke:#327496;stroke-width:0.8274;stroke-miterlimit:10;}
	.st7{stroke:#000000;stroke-miterlimit:10;}
	.st8{fill:none;stroke:#000000;stroke-width:1.0762;stroke-miterlimit:10;}
	.st9{fill:#17449D;}
</style>
<circle class="st0" cx="152" cy="126" r="120"/>
<circle class="st1" cx="152" cy="126" r="98"/>
<circle class="st2" cx="152" cy="126" r="75"/>
<circle class="st3" cx="152.5" cy="126.5" r="55.5"/>
<g>
	<path d="M139.33,118.78c-0.24-3.88-0.51-6.99-0.82-9.32c2.05,0.91,3.87,1.54,5.46,1.9c1.6,0.36,3,0.53,4.21,0.53
		c1.59,0,2.85-0.23,3.79-0.7s1.41-1.15,1.41-2.06c0-0.31-0.05-0.61-0.14-0.89c-0.09-0.28-0.27-0.6-0.52-0.96
		c-0.26-0.36-0.62-0.74-1.1-1.16l-5.15-4.48c-1.21-1.02-2.05-1.76-2.52-2.21c-0.97-0.93-1.72-1.8-2.26-2.6
		c-0.54-0.8-0.93-1.62-1.18-2.45c-0.25-0.83-0.37-1.71-0.37-2.64c0-1.11,0.2-2.2,0.59-3.27c0.39-1.07,0.98-2.06,1.76-2.99
		c0.78-0.93,1.82-1.73,3.12-2.41c1.29-0.67,2.68-1.13,4.16-1.38s3-0.37,4.57-0.37c3.08,0,6.43,0.36,10.06,1.07
		c0.05,1.26,0.12,2.41,0.19,3.46c0.07,1.05,0.25,2.88,0.52,5.51c-1.68-0.67-3.21-1.14-4.59-1.41c-1.39-0.26-2.58-0.4-3.58-0.4
		c-1.42,0-2.6,0.26-3.54,0.79c-0.94,0.53-1.41,1.19-1.41,1.97c0,0.36,0.07,0.72,0.22,1.07c0.15,0.35,0.42,0.75,0.82,1.22
		c0.4,0.46,0.93,0.98,1.59,1.53c0.66,0.56,1.69,1.38,3.09,2.47l1.97,1.56c0.58,0.47,1.21,1.05,1.89,1.72c0.67,0.67,1.26,1.34,1.75,2
		s0.87,1.26,1.13,1.8c0.26,0.55,0.46,1.1,0.59,1.65c0.13,0.56,0.19,1.15,0.19,1.79c0,1.64-0.39,3.2-1.18,4.69
		c-0.78,1.49-1.9,2.71-3.34,3.66c-1.44,0.96-3.02,1.63-4.74,2.01s-3.54,0.57-5.46,0.57C147.57,120.07,143.84,119.64,139.33,118.78z"
		/>
</g>
<rect x="135.56" y="131.5" class="st4" width="34.44" height="30.5"/>
<line class="st5" x1="135" y1="138.43" x2="169.44" y2="138.43"/>
<ellipse class="st6" cx="165.56" cy="135.66" rx="1.11" ry="1.39"/>
<ellipse class="st6" cx="162.22" cy="135.66" rx="1.11" ry="1.39"/>
<ellipse class="st6" cx="158.89" cy="135.66" rx="1.11" ry="1.39"/>
<g>
	<path d="M149.42,144.9v2.21l-2.46,1.67l2.45,1.68l0,2.2l-4.33-2.96v-1.85L149.42,144.9z"/>
</g>
<g>
	<path d="M156.27,152.66v-2.21l2.26-1.68l-2.26-1.68l-0.01-2.19l4,2.96v1.85L156.27,152.66z"/>
</g>
<line class="st7" x1="155" y1="141.9" x2="150.56" y2="154.38"/>
<path class="st8" d="M170,222.35"/>
<path class="st9" d="M171.42,29.93l10.79,2.83l13,5.27l12.8,7.55l10.27,8.23l9.8,10.41l7.25,10.17l7.54,14.84l4.7,14.94l2.21,15.19
	l-0.55,19.07l-3.87,17.47l-5.99,14.56l-8.73,14.04l-9.51,10.97l-10.86,9.34l-10.41,6.73l-11.84,5.64l-10.65,3.51l-6.85,1.82
	l-9.73,1.5c-1.05,0-2.05,0.05-2.99,0.13c-19.16,1.79-16.22,20.87,5.13,20.87l2.65,0.24l6.55-0.92l9.37-1.97l8.31-2.42l8.7-3.26
	l9.51-4.51l8.6-5.01l8.8-6.21l9.82-8.48l8.91-9.56l6.83-9.01l7.2-11.89l4.53-9.56l2.88-7.56l1.6-5.05l1.38-5.15l1.67-7.94l1.15-8.32
	l0.64-4.16l0.5-8.77l-0.56-3.11L271.5,115l-0.81-6.77l-1.43-7.81l-3.3-12.08l-4.55-11.69l-3.85-7.76l-8.29-13.16l-7.97-9.87
	l-6.5-6.7L226,31.52l-7.01-5.1l-6.62-4.15l-12.42-6.3l-11.07-4.19l-7.5-2.15l-7.56-1.64L166.67,7h-5.81c-22.52,0-20.37,21,2.15,21
	L171.42,29.93z"/>
<g>
</g>
<g>
</g>
<g>
</g>
<g>
</g>
<g>
</g>
<g>
</g>
<g>
</g>
<g>
</g>
<g>
</g>
<g>
</g>
<g>
</g>
<g>
</g>
<g>
</g>
<g>
</g>
<g>
</g>
</svg>
